<svg xmlns="http://www.w3.org/2000/svg" width="600" height="600" viewBox="0 0 600 600">
  <rect width="100%" height="100%" fill="#ffffff" />
  <rect x="210" y="120" width="180" height="360" fill="none" stroke="#000000" stroke-width="3" />
  <line x1="200" y1="120" x2="400" y2="120" stroke="#000000" stroke-width="2" />
  <line x1="200" y1="480" x2="400" y2="480" stroke="#000000" stroke-width="2" />
  <line x1="130" y1="120" x2="130" y2="480" stroke="#000000" stroke-width="2" />
  <line x1="120" y1="120" x2="140" y2="120" stroke="#000000" stroke-width="2" />
  <line x1="120" y1="480" x2="140" y2="480" stroke="#000000" stroke-width="2" />
  <text x="95" y="310" font-size="20" font-family="Arial, sans-serif" fill="#000000" transform="rotate(-90 95,310)">
    Height (+/-1mm)
  </text>
  <line x1="210" y1="90" x2="390" y2="90" stroke="#000000" stroke-width="2" />
  <line x1="210" y1="80" x2="210" y2="100" stroke="#000000" stroke-width="2" />
  <line x1="390" y1="80" x2="390" y2="100" stroke="#000000" stroke-width="2" />
  <text x="245" y="70" font-size="18" font-family="Arial, sans-serif" fill="#000000">
    Neck Width (+/-0.5mm)
  </text>
  <line x1="200" y1="520" x2="400" y2="520" stroke="#000000" stroke-width="2" />
  <line x1="200" y1="510" x2="200" y2="530" stroke="#000000" stroke-width="2" />
  <line x1="400" y1="510" x2="400" y2="530" stroke="#000000" stroke-width="2" />
  <text x="235" y="555" font-size="18" font-family="Arial, sans-serif" fill="#000000">
    Base Width (+/-0.8mm)
  </text>
</svg>
